<?xml version="1.0" encoding="UTF-8" standalone="no"?>
<!DOCTYPE svg PUBLIC "-//W3C//DTD SVG 1.1//EN" "http://www.w3.org/Graphics/SVG/1.1/DTD/svg11.dtd">
<svg xmlns="http://www.w3.org/2000/svg" version="1.1" viewBox="0.00 0.00 1280.00 1225.00" width="1280.00" height="1225.00">
<path fill="#ff7f00" d="
  M 1241.87 0.00
  L 1246.46 0.00
  C 1264.51 2.20 1277.98 15.50 1280.00 33.63
  L 1280.00 38.75
  C 1277.91 55.88 1266.05 69.05 1249.24 71.92
  Q 1161.83 86.86 1074.23 101.79
  A 1.21 1.21 0.0 0 0 1073.29 102.55
  L 796.56 811.03
  Q 796.43 811.35 796.70 811.57
  Q 841.00 846.30 885.38 881.11
  C 886.12 881.69 886.97 882.98 887.85 883.66
  C 924.40 911.90 946.98 957.06 938.75 1003.62
  Q 937.67 1009.72 935.02 1015.48
  C 921.56 1044.69 899.09 1068.14 868.43 1079.08
  Q 866.21 1079.88 868.52 1080.35
  Q 873.68 1081.40 879.42 1083.86
  C 925.86 1103.78 940.02 1162.28 906.01 1200.33
  Q 885.80 1222.94 853.89 1225.00
  L 848.74 1225.00
  Q 816.01 1222.79 795.70 1199.10
  C 765.91 1164.36 775.02 1111.16 814.72 1088.38
  Q 815.98 1087.66 814.52 1087.66
  L 195.27 1089.38
  Q 194.08 1089.39 195.07 1090.06
  Q 223.42 1109.37 227.90 1142.28
  C 230.34 1160.14 225.83 1178.84 215.44 1193.42
  Q 194.59 1222.71 157.64 1225.00
  L 152.76 1225.00
  C 115.14 1223.16 84.13 1193.83 82.06 1155.83
  C 80.63 1129.78 93.19 1104.87 115.09 1090.57
  Q 116.28 1089.79 114.86 1089.79
  Q 89.13 1089.72 62.73 1089.91
  Q 45.90 1090.03 35.17 1079.34
  C 19.95 1064.16 20.61 1040.65 36.82 1026.51
  Q 47.18 1017.47 62.75 1017.43
  Q 367.12 1016.56 671.50 1015.71
  C 723.75 1015.57 775.99 1015.43 828.24 1015.43
  C 844.90 1015.43 862.73 1011.39 866.93 992.49
  C 869.45 981.20 866.35 969.65 860.60 959.89
  Q 853.96 948.63 845.93 942.33
  Q 780.68 891.12 715.67 839.94
  Q 715.11 839.50 714.41 839.44
  Q 404.61 814.82 94.72 790.18
  Q 78.96 788.93 74.92 787.69
  C 60.89 783.39 51.03 771.52 49.24 756.75
  Q 24.62 553.44 0.00 350.12
  L 0.00 345.26
  C 1.65 330.56 11.01 318.10 25.05 313.54
  Q 29.82 311.99 39.63 311.72
  Q 73.57 310.76 107.50 309.92
  Q 514.99 299.82 922.25 289.70
  A 0.76 0.75 -80.2 0 0 922.94 289.21
  Q 968.28 173.02 1013.60 56.82
  Q 1019.53 41.62 1033.96 36.10
  Q 1037.88 34.60 1053.49 31.94
  Q 1144.77 16.36 1236.05 0.77
  C 1237.75 0.48 1239.95 0.43 1241.87 0.00
  Z
  M 895.87 345.96
  A 0.30 0.30 0.0 0 0 895.58 345.55
  L 778.55 348.48
  A 0.30 0.30 0.0 0 0 778.26 348.78
  L 778.26 476.21
  A 0.30 0.30 0.0 0 0 778.56 476.51
  L 844.74 476.51
  A 0.30 0.30 0.0 0 0 845.01 476.32
  L 895.87 345.96
  Z
  M 752.90 349.51
  A 0.32 0.32 0.0 0 0 752.57 349.19
  L 630.28 352.22
  A 0.32 0.32 0.0 0 0 629.97 352.54
  L 629.96 476.19
  A 0.32 0.32 0.0 0 0 630.28 476.51
  L 752.57 476.51
  A 0.32 0.32 0.0 0 0 752.89 476.19
  L 752.90 349.51
  Z
  M 604.18 476.51
  A 0.30 0.30 0.0 0 0 604.48 476.21
  L 604.49 353.09
  A 0.30 0.30 0.0 0 0 604.18 352.79
  L 481.78 355.83
  A 0.30 0.30 0.0 0 0 481.49 356.13
  L 481.47 476.21
  A 0.30 0.30 0.0 0 0 481.77 476.51
  L 604.18 476.51
  Z
  M 455.66 476.51
  A 0.34 0.34 0.0 0 0 456.00 476.17
  L 456.00 356.88
  A 0.34 0.34 0.0 0 0 455.65 356.54
  L 333.37 359.59
  A 0.34 0.34 0.0 0 0 333.04 359.93
  L 333.04 476.17
  A 0.34 0.34 0.0 0 0 333.38 476.51
  L 455.66 476.51
  Z
  M 307.43 476.51
  A 0.30 0.30 0.0 0 0 307.73 476.21
  L 307.73 360.57
  A 0.30 0.30 0.0 0 0 307.42 360.27
  L 185.04 363.37
  A 0.30 0.30 0.0 0 0 184.75 363.67
  L 184.75 476.21
  A 0.30 0.30 0.0 0 0 185.05 476.51
  L 307.43 476.51
  Z
  M 159.24 364.22
  A 0.32 0.32 0.0 0 0 158.91 363.90
  L 56.11 366.55
  A 0.32 0.32 0.0 0 0 55.80 366.91
  L 69.04 476.23
  A 0.32 0.32 0.0 0 0 69.35 476.51
  L 158.92 476.51
  A 0.32 0.32 0.0 0 0 159.24 476.19
  L 159.24 364.22
  Z
  M 159.24 502.22
  A 0.34 0.34 0.0 0 0 158.90 501.88
  L 72.54 501.88
  A 0.34 0.34 0.0 0 0 72.21 502.26
  L 85.99 616.54
  A 0.34 0.34 0.0 0 0 86.33 616.84
  L 158.90 616.84
  A 0.34 0.34 0.0 0 0 159.24 616.50
  L 159.24 502.22
  Z
  M 307.73 502.15
  A 0.27 0.27 0.0 0 0 307.46 501.88
  L 185.02 501.88
  A 0.27 0.27 0.0 0 0 184.75 502.15
  L 184.75 616.57
  A 0.27 0.27 0.0 0 0 185.02 616.84
  L 307.46 616.84
  A 0.27 0.27 0.0 0 0 307.73 616.57
  L 307.73 502.15
  Z
  M 456.00 502.14
  A 0.26 0.26 0.0 0 0 455.74 501.88
  L 333.30 501.88
  A 0.26 0.26 0.0 0 0 333.04 502.14
  L 333.04 616.58
  A 0.26 0.26 0.0 0 0 333.30 616.84
  L 455.74 616.84
  A 0.26 0.26 0.0 0 0 456.00 616.58
  L 456.00 502.14
  Z
  M 604.50 502.15
  A 0.27 0.27 0.0 0 0 604.23 501.88
  L 481.75 501.88
  A 0.27 0.27 0.0 0 0 481.48 502.15
  L 481.48 616.57
  A 0.27 0.27 0.0 0 0 481.75 616.84
  L 604.23 616.84
  A 0.27 0.27 0.0 0 0 604.50 616.57
  L 604.50 502.15
  Z
  M 752.90 502.15
  A 0.27 0.27 0.0 0 0 752.63 501.88
  L 630.23 501.88
  A 0.27 0.27 0.0 0 0 629.96 502.15
  L 629.96 616.57
  A 0.27 0.27 0.0 0 0 630.23 616.84
  L 752.63 616.84
  A 0.27 0.27 0.0 0 0 752.90 616.57
  L 752.90 502.15
  Z
  M 834.95 502.30
  A 0.31 0.31 0.0 0 0 834.67 501.88
  L 778.57 501.88
  A 0.31 0.31 0.0 0 0 778.26 502.19
  L 778.26 616.54
  A 0.31 0.31 0.0 0 0 778.57 616.85
  L 790.01 616.84
  A 0.31 0.31 0.0 0 0 790.30 616.64
  L 834.95 502.30
  Z
  M 159.25 642.36
  A 0.30 0.30 0.0 0 0 158.95 642.06
  L 89.46 642.06
  A 0.30 0.30 0.0 0 0 89.16 642.40
  L 98.46 719.57
  A 0.30 0.30 0.0 0 0 98.73 719.83
  L 158.93 724.64
  A 0.30 0.30 0.0 0 0 159.25 724.35
  L 159.25 642.36
  Z
  M 307.38 736.40
  A 0.32 0.32 0.0 0 0 307.73 736.08
  L 307.73 642.38
  A 0.32 0.32 0.0 0 0 307.41 642.06
  L 185.07 642.06
  A 0.32 0.32 0.0 0 0 184.75 642.38
  L 184.75 726.35
  A 0.32 0.32 0.0 0 0 185.04 726.67
  L 307.38 736.40
  Z
  M 455.68 748.17
  A 0.31 0.31 0.0 0 0 456.01 747.86
  L 456.01 642.37
  A 0.31 0.31 0.0 0 0 455.70 642.06
  L 333.36 642.06
  A 0.31 0.31 0.0 0 0 333.05 642.37
  L 333.05 738.25
  A 0.31 0.31 0.0 0 0 333.34 738.56
  L 455.68 748.17
  Z
  M 604.12 760.07
  A 0.34 0.34 0.0 0 0 604.49 759.73
  L 604.49 642.40
  A 0.34 0.34 0.0 0 0 604.15 642.06
  L 481.84 642.06
  A 0.34 0.34 0.0 0 0 481.50 642.40
  L 481.50 749.99
  A 0.34 0.34 0.0 0 0 481.81 750.32
  L 604.12 760.07
  Z
  M 716.30 768.87
  C 721.29 769.25 725.08 770.00 729.29 771.82
  A 0.28 0.28 0.0 0 0 729.66 771.66
  L 752.67 712.72
  A 4.03 4.03 0.0 0 0 752.94 711.27
  L 752.94 642.75
  Q 752.94 642.06 752.25 642.06
  L 630.47 642.06
  Q 629.99 642.06 629.99 642.53
  L 629.99 761.51
  Q 629.99 762.05 630.53 762.09
  Q 673.41 765.64 716.30 768.87
  Z
  M 779.06 645.51
  L 779.65 643.91
  A 0.43 0.32 82.0 0 1 779.70 643.82
  Q 780.13 643.09 779.85 642.31
  A 0.79 0.78 -49.1 0 0 778.34 642.42
  Q 778.02 643.96 778.41 645.47
  Q 778.68 646.55 779.06 645.51
  Z
  M 198.48 1151.57
  A 43.16 43.16 0.0 0 0 155.32 1108.41
  A 43.16 43.16 0.0 0 0 112.16 1151.57
  A 43.16 43.16 0.0 0 0 155.32 1194.73
  A 43.16 43.16 0.0 0 0 198.48 1151.57
  Z
  M 894.59 1151.57
  A 43.16 43.16 0.0 0 0 851.43 1108.41
  A 43.16 43.16 0.0 0 0 808.27 1151.57
  A 43.16 43.16 0.0 0 0 851.43 1194.73
  A 43.16 43.16 0.0 0 0 894.59 1151.57
  Z"
/>
<circle fill="#ff7f00" cx="155.32" cy="1152.34" r="23.35"/>
<circle fill="#ff7f00" cx="851.43" cy="1152.34" r="23.36"/>
</svg>
